<svg width="24" height="18" viewBox="0 0 24 18" fill="none" xmlns="http://www.w3.org/2000/svg">
<path d="M10.7634 4.06662C11.1726 4.02181 11.586 3.99952 12.0001 3.99995C15.7101 3.99995 19.1984 5.90828 21.2284 8.99995C20.9179 9.47044 20.5673 9.92686 20.1784 10.3666C20.0549 10.5031 19.99 10.6624 19.9917 10.8249C19.9943 11.0068 20.0801 11.1831 20.2361 11.3268C20.392 11.4706 20.6096 11.574 20.8555 11.6212C21.1014 11.6684 21.3621 11.6569 21.598 11.5883C21.8338 11.5198 22.0318 11.398 22.1617 11.2416C22.7053 10.6316 23.1775 9.99049 23.5734 9.32495C23.636 9.22097 23.6683 9.10897 23.6683 8.99578C23.6683 8.8826 23.636 8.7706 23.5734 8.66662C21.2167 4.75828 16.7834 2.33328 12.0001 2.33328C11.4525 2.33131 10.9058 2.36478 10.3667 2.43328C10.2135 2.45189 10.0669 2.49186 9.93535 2.55093C9.80377 2.61 9.68977 2.687 9.59985 2.77754C9.50993 2.86807 9.44586 2.97037 9.41129 3.0786C9.37673 3.18682 9.37234 3.29885 9.39839 3.40828C9.42443 3.51772 9.4804 3.62242 9.56309 3.7164C9.64579 3.81039 9.75359 3.89182 9.88034 3.95605C10.0071 4.02027 10.1503 4.06604 10.3018 4.09073C10.4533 4.11542 10.6102 4.11855 10.7634 4.09995V4.06662ZM2.32839 0.908284C2.21961 0.830586 2.09047 0.768951 1.94834 0.726901C1.80622 0.684851 1.65389 0.663208 1.50005 0.663208C1.34622 0.663208 1.19389 0.684851 1.05176 0.726901C0.909637 0.768951 0.780498 0.830586 0.67172 0.908284C0.452032 1.0652 0.328613 1.27803 0.328613 1.49995C0.328613 1.72187 0.452032 1.9347 0.67172 2.09162L4.28839 4.66662C2.63822 5.80122 1.32489 7.16161 0.42672 8.66662C0.36248 8.77175 0.329321 8.88523 0.329321 8.99995C0.329321 9.11466 0.36248 9.22814 0.42672 9.33328C2.78339 13.2416 7.21672 15.6666 12.0001 15.6666C14.0967 15.6563 16.1438 15.2104 17.8917 14.3833L21.6717 17.0916C21.7802 17.1697 21.9092 17.2317 22.0514 17.274C22.1935 17.3163 22.346 17.3381 22.5001 17.3381C22.6541 17.3381 22.8066 17.3163 22.9487 17.274C23.0909 17.2317 23.2199 17.1697 23.3284 17.0916C23.4377 17.0141 23.5245 16.922 23.5838 16.8204C23.643 16.7189 23.6735 16.61 23.6735 16.4999C23.6735 16.3899 23.643 16.281 23.5838 16.1795C23.5245 16.0779 23.4377 15.9858 23.3284 15.9083L2.32839 0.908284ZM9.74839 8.56662L12.6067 10.6083C12.4095 10.6487 12.2052 10.6683 12.0001 10.6666C11.3812 10.6666 10.7877 10.491 10.3501 10.1785C9.91255 9.8659 9.66672 9.44198 9.66672 8.99995C9.66433 8.85344 9.69184 8.70746 9.74839 8.56662ZM12.0001 13.9999C8.29005 13.9999 4.80172 12.0916 2.78339 8.99995C3.53716 7.81141 4.60697 6.73876 5.93339 5.84162L7.99839 7.33328C7.51334 7.96561 7.32842 8.69324 7.47135 9.407C7.61429 10.1208 8.07739 10.7822 8.79117 11.292C9.50495 11.8019 10.4309 12.1326 11.4302 12.2347C12.4295 12.3368 13.4481 12.2047 14.3334 11.8583L16.1884 13.1666C14.918 13.7007 13.474 13.988 12.0001 13.9999Z" fill="#CAC8BD"/>
</svg>
