<svg width="14" height="18" viewBox="0 0 14 18" fill="none" xmlns="http://www.w3.org/2000/svg">
<path d="M11.1667 6.49996V4.83329C11.1667 3.72822 10.7277 2.66842 9.94632 1.88701C9.16492 1.10561 8.10511 0.666626 7.00004 0.666626C5.89497 0.666626 4.83516 1.10561 4.05376 1.88701C3.27236 2.66842 2.83337 3.72822 2.83337 4.83329V6.49996C2.17033 6.49996 1.53445 6.76335 1.06561 7.23219C0.596766 7.70103 0.333374 8.33692 0.333374 8.99996V14.8333C0.333374 15.4963 0.596766 16.1322 1.06561 16.6011C1.53445 17.0699 2.17033 17.3333 2.83337 17.3333H11.1667C11.8297 17.3333 12.4656 17.0699 12.9345 16.6011C13.4033 16.1322 13.6667 15.4963 13.6667 14.8333V8.99996C13.6667 8.33692 13.4033 7.70103 12.9345 7.23219C12.4656 6.76335 11.8297 6.49996 11.1667 6.49996ZM4.50004 4.83329C4.50004 4.17025 4.76343 3.53437 5.23227 3.06553C5.70111 2.59668 6.337 2.33329 7.00004 2.33329C7.66308 2.33329 8.29897 2.59668 8.76781 3.06553C9.23665 3.53437 9.50004 4.17025 9.50004 4.83329V6.49996H4.50004V4.83329ZM12 14.8333C12 15.0543 11.9122 15.2663 11.756 15.4225C11.5997 15.5788 11.3877 15.6666 11.1667 15.6666H2.83337C2.61236 15.6666 2.4004 15.5788 2.24412 15.4225C2.08784 15.2663 2.00004 15.0543 2.00004 14.8333V8.99996C2.00004 8.77894 2.08784 8.56698 2.24412 8.4107C2.4004 8.25442 2.61236 8.16663 2.83337 8.16663H11.1667C11.3877 8.16663 11.5997 8.25442 11.756 8.4107C11.9122 8.56698 12 8.77894 12 8.99996V14.8333Z" fill="#CAC8BD"/>
</svg>
