<?xml version="1.0" encoding="utf-8"?>
<!-- Uploaded to: SVG Repo, www.svgrepo.com, Generator: SVG Repo Mixer Tools -->
<svg width="800px" height="800px" viewBox="0 0 1024 1024" fill="#000000" class="icon"  version="1.1" xmlns="http://www.w3.org/2000/svg"><path d="M512.8 1002.4c-65.6 0-129.6-12.8-189.6-38.4-58.4-24.8-110.4-60-155.2-104.8S88 761.6 64 703.2c-25.6-60-38.4-124-38.4-190.4 0-65.6 12.8-130.4 38.4-190.4 24-57.6 59.2-110.4 104-155.2s96.8-80 155.2-104.8C383.2 36.8 447.2 24 512.8 24s129.6 12.8 189.6 38.4c58.4 24.8 110.4 60 155.2 104.8 44.8 44.8 80 96.8 104.8 155.2 25.6 60 38.4 124 38.4 190.4 0 65.6-12.8 130.4-38.4 190.4-24.8 58.4-60 110.4-104.8 155.2-44.8 44.8-96.8 80-155.2 104.8-60 25.6-123.2 39.2-189.6 39.2z m0-931.2c-242.4 0-440 198.4-440 441.6s197.6 441.6 440.8 441.6c243.2 0 440.8-198.4 440.8-441.6S756 71.2 512.8 71.2z" fill="" /><path d="M512 811.2c-5.6 0-12-2.4-16-6.4-1.6-0.8-2.4-1.6-4-3.2L280 589.6c-9.6-9.6-9.6-24 0-33.6 4.8-4.8 10.4-7.2 16.8-7.2s12 2.4 16.8 7.2L488 731.2V236c0-12.8 10.4-24 24-24 12.8 0 24 10.4 24 24v495.2l175.2-175.2c4.8-4.8 10.4-7.2 16.8-7.2s12 2.4 16.8 7.2c9.6 9.6 9.6 24 0 33.6l-212 212c-1.6 1.6-2.4 2.4-4 3.2-5.6 4-11.2 6.4-16.8 6.4z" fill="" /></svg>